<?xml version="1.0" encoding="UTF-8"?>
<svg width="40px" height="30px" viewBox="0 0 40 30" version="1.1" xmlns="http://www.w3.org/2000/svg" xmlns:xlink="http://www.w3.org/1999/xlink">
    <!-- Generator: Sketch 53.2 (72643) - https://sketchapp.com -->
    <title>+</title>
    <desc>Created with Sketch.</desc>
    <g id="Page-1" stroke="none" stroke-width="1" fill="none" fill-rule="evenodd">
        <g id="WeChat-Main-Screen-Drop-Down" transform="translate(-393.000000, -265.000000)" fill="#FFFFFF">
            <g id="+-Drop-Down" transform="translate(352.000000, 134.000000)">
                <g id="Icon-/-Add-Friend" transform="translate(41.000000, 131.000000)">
                    <path d="M34,13 L38.5069036,13 C39.331518,13 40,13.6657972 40,14.5 C40,15.3284271 39.3361142,16 38.5069036,16 L34,16 L34,20.5069036 C34,21.331518 33.3342028,22 32.5,22 C31.6715729,22 31,21.3361142 31,20.5069036 L31,16 L26.4930964,16 C25.668482,16 25,15.3342028 25,14.5 C25,13.6715729 25.6638858,13 26.4930964,13 L31,13 L31,8.49309635 C31,7.66848201 31.6657972,7 32.5,7 C33.3284271,7 34,7.66388585 34,8.49309635 L34,13 Z M19.3333333,17.5 C22.1428993,21.9750832 30.3087002,23.4673059 31,26.6666667 C31.0258867,27.4224043 31.152449,29.890279 30.1666667,30 C29.3240453,29.890279 16.0004079,30.0285866 16,30 C16.0004079,30.0285866 2.67592682,29.890279 1.83333333,30 C0.847523155,29.890279 0.974085476,27.4224043 1,26.6666667 C1.69127196,23.4673059 9.85791665,21.9750832 12.6666667,17.5 C12.4583505,17.647554 12.3545694,16.8443699 12.6666667,16.6666667 C12.2356008,16.5619224 11.8356638,15.7179126 11,15 C11.0914774,14.9522215 10.9767276,14.8347433 11,15 C10.8248528,14.6847712 10.7927903,14.6522773 11,15 C9.29260495,13.073404 8.37123125,10.893809 8.5,8.33333333 C8.37123125,3.79179539 11.7867264,0 16,0 C20.2132457,0 23.6287409,3.79179539 23.5,8.33333333 C23.6287409,10.893809 22.7073672,13.073404 21,15 C21.2071818,14.6522773 21.1751194,14.6847712 21,15 C21.0232446,14.8347433 20.9084947,14.9522215 21,15 C20.1643083,15.7179126 19.7643714,16.5619224 19.3333333,16.6666667 C19.6454028,16.8443699 19.5424654,17.647554 19.3333333,17.5 Z" id="+"></path>
                </g>
            </g>
        </g>
    </g>
</svg>