<?xml version="1.0" encoding="UTF-8"?>
<svg width="21px" height="32px" viewBox="0 0 21 32" version="1.1" xmlns="http://www.w3.org/2000/svg" xmlns:xlink="http://www.w3.org/1999/xlink">
    <!-- Generator: Sketch 53.2 (72643) - https://sketchapp.com -->
    <title>Icon / Microphone</title>
    <desc>Created with Sketch.</desc>
    <g id="Page-1" stroke="none" stroke-width="1" fill="none" fill-rule="evenodd">
        <g id="WeChat---Contacts" transform="translate(-570.000000, -156.000000)">
            <g id="Search" transform="translate(0.000000, 128.000000)">
                <rect id="SearchBG" fill="#EFEFF4" x="0" y="0" width="640" height="87"></rect>
                <rect id="SearchInput" stroke="#DADBDF" fill="#FFFFFF" x="31.5" y="16.5" width="577" height="55" rx="10"></rect>
                <g id="Icon-/-Microphone" transform="translate(570.000000, 28.000000)" fill="#C5C5C5">
                    <path d="M17,17.5423 C17,21.1083 14.109,24.0003 10.542,24.0003 L10.458,24.0003 C6.891,24.0003 4,21.1083 4,17.5423 L4,6.4573 C4,2.8913 6.891,0.0003 10.458,0.0003 L10.542,0.0003 C14.109,0.0003 17,2.8913 17,6.4573 L17,17.5423 Z" id="Fill-1"></path>
                    <path d="M18.9873,14.5957 L18.9873,17.5097 C18.9873,22.1987 15.1863,25.9997 10.4973,25.9997 L10.4923,25.9997 C5.8033,25.9997 2.0033,22.1987 2.0033,17.5097 L2.0003,11.9997 C2.0003,11.4477 1.5523,10.9997 1.0003,10.9997 C0.4473,10.9997 0.0003,11.4477 0.0003,11.9997 L0.0003,17.4997 C0.0003,22.7887 3.9133,27.1507 9.0003,27.8807 L9.0003,29.9997 L2.0003,29.9997 C1.4473,29.9997 1.0003,30.4477 1.0003,30.9997 C1.0003,31.5527 1.4473,31.9997 2.0003,31.9997 L19.0003,31.9997 C19.5523,31.9997 20.0003,31.5527 20.0003,30.9997 C20.0003,30.4477 19.5523,29.9997 19.0003,29.9997 L12.0003,29.9997 L12.0003,27.8807 C17.0863,27.1507 21.0003,22.7887 21.0003,17.4997 L21.0003,11.9997 C21.0003,11.4477 20.5523,10.9997 20.0003,10.9997 C19.4473,10.9997 19.0003,11.4477 19.0003,11.9997" id="Fill-3"></path>
                </g>
            </g>
        </g>
    </g>
</svg>