<?xml version="1.0" encoding="UTF-8"?>
<svg width="47px" height="44px" viewBox="0 0 47 44" version="1.1" xmlns="http://www.w3.org/2000/svg" xmlns:xlink="http://www.w3.org/1999/xlink">
    <!-- Generator: Sketch 53.2 (72643) - https://sketchapp.com -->
    <title>Icon / TabBar-Me-Green</title>
    <desc>Created with Sketch.</desc>
    <g id="Page-1" stroke="none" stroke-width="1" fill="none" fill-rule="evenodd">
        <g id="WeChat-Me" transform="translate(-537.000000, -1054.000000)" fill="#27B24A">
            <g id="TabBar-Discover-Active" transform="translate(0.000000, 1037.000000)">
                <g id="我-+-Icon-/-TabBar-Me-Outline" transform="translate(537.000000, 17.000000)">
                    <g id="Icon-/-TabBar-Me-Green">
                        <path d="M28.1407881,25.6666667 C28.140789,25.3901978 28.140789,24.8323364 28.1407881,24.4444444 C28.8017131,24.2908195 29.4149498,23.0529384 30.6963437,22 C33.3143067,19.1743258 34.7270797,15.9775865 34.529677,12.2222222 C34.7270797,5.56129991 29.4899871,0 23.029677,0 C16.5693242,0 11.3322316,5.56129991 11.529677,12.2222222 C11.3322316,15.9775865 12.7450046,19.1743258 15.3630104,22 C16.6443616,23.0529384 17.2575982,24.2908195 17.9185659,24.4444444 C17.9185658,24.9932861 18.0128918,25.3353271 17.9185659,25.6666667 C13.6118159,32.230122 1.08962736,34.4187153 0.0296770214,39.1111111 C-0.0100585828,40.2195262 -0.204120808,43.8390759 1.3074548,44 C2.59943147,43.8390759 43.822019,43.8841812 44.7518992,44 C46.2634321,43.8390759 46.0693699,40.2195262 46.029677,39.1111111 C44.969684,34.4187153 32.4487892,32.230122 28.1407881,25.6666667 Z"></path>
                    </g>
                </g>
            </g>
        </g>
    </g>
</svg>