<?xml version="1.0" encoding="UTF-8"?>
<svg width="47px" height="44px" viewBox="0 0 47 44" version="1.1" xmlns="http://www.w3.org/2000/svg" xmlns:xlink="http://www.w3.org/1999/xlink">
    <!-- Generator: Sketch 53.2 (72643) - https://sketchapp.com -->
    <title>Icon / TabBar-Me-Outline</title>
    <desc>Created with Sketch.</desc>
    <g id="Page-1" stroke="none" stroke-width="1" fill="none" fill-rule="evenodd">
        <g id="WeChat-Main-Screen-Drop-Down" transform="translate(-537.000000, -1054.000000)" stroke="#7A7E83" stroke-width="2">
            <g id="TabBar-WeChat-Active" transform="translate(0.000000, 1037.000000)">
                <g id="我-+-Icon-/-TabBar-Me-Outline" transform="translate(537.000000, 17.000000)">
                    <g id="Icon-/-TabBar-Me-Outline">
                        <path d="M27.8797575,23.4784596 C27.9394255,23.4408631 28.0875165,23.2988388 28.3390965,23.0098708 C28.3703931,22.9739231 28.7175671,22.5691448 28.8352211,22.4355318 C29.058511,22.181954 29.2617437,21.9645032 29.4765847,21.7539486 C29.649646,21.5843401 29.8252605,21.4244752 30.0068069,21.2726926 C32.5256819,18.5348422 33.7055862,15.5945903 33.5301159,12.1925993 C33.7109723,6.08999435 28.9204867,1 23.029677,1 C17.1388256,1 12.3483425,6.08999172 12.5282977,12.2747266 C12.3537241,15.5950753 13.5336336,18.5348518 16.0525491,21.2726956 C16.2340922,21.42448 16.4097038,21.5843469 16.5827632,21.7539582 C16.7975815,21.9644964 17.0007949,22.18193 17.2240661,22.4354887 C17.3417115,22.569093 17.6888668,22.9738513 17.7201593,23.0097945 C17.9717617,23.2987905 18.1198674,23.4408342 18.1795818,23.4784556 L18.9185661,23.6502135 L18.9185659,24.4444447 C18.9185659,24.5702076 18.9239368,24.6807533 18.9368983,24.8591533 C18.9777762,25.4217923 18.9777762,25.5982454 18.8803521,25.9404683 L18.8385007,26.0874801 L18.7546441,26.215277 C17.0825759,28.7634966 14.4622109,30.6820284 10.1294399,32.9834305 C9.79551383,33.1607992 6.21162466,35.0063524 5.28024039,35.5244454 C2.65501837,36.9847548 1.32798221,38.1265507 1.02517374,39.2503954 C1.02287324,39.3121578 1.02151684,39.3490275 1.01703503,39.4708518 C0.991575935,40.1899542 0.991712603,40.7601049 1.03334359,41.3249927 C1.10816774,42.340276 1.31417145,42.9081166 1.39579647,42.994176 C4.72928859,42.8539779 41.3744048,42.8726469 44.6624422,42.9953221 C44.7432737,42.9132795 44.9508114,42.3448964 45.0259795,41.3249896 C45.0676091,40.7601434 45.0677539,40.1900786 45.042312,39.4709278 C45.0378316,39.3490539 45.0364758,39.3121735 45.0341764,39.2503838 C44.7313449,38.1265085 43.404393,36.9847106 40.7793883,35.5244328 C39.8479206,35.0062616 36.2636409,33.1604285 35.9293204,32.9828396 C31.5973586,30.6817295 28.9771279,28.7632895 27.3047831,26.2153884 L27.1407872,25.9655324 L27.1407881,25.6666634 C27.140789,25.1112672 27.140789,25.1112672 27.1407881,24.4444468 L27.1407863,23.6502255 L27.8797575,23.4784596 Z"></path>
                    </g>
                </g>
            </g>
        </g>
    </g>
</svg>