<?xml version="1.0" encoding="UTF-8"?>
<svg width="33px" height="33px" viewBox="0 0 33 33" version="1.1" xmlns="http://www.w3.org/2000/svg" xmlns:xlink="http://www.w3.org/1999/xlink">
    <!-- Generator: Sketch 53.2 (72643) - https://sketchapp.com -->
    <title>+</title>
    <desc>Created with Sketch.</desc>
    <g id="Page-1" stroke="none" stroke-width="1" fill="none" fill-rule="evenodd">
        <g id="WeChat-Main-Screen-Drop-Down" transform="translate(-573.000000, -70.000000)" fill="#FFFFFF">
            <g id="Header">
                <g id="Header-Add" transform="translate(573.000000, 70.000000)">
                    <path d="M14,14 L2.00228533,14 C0.899784928,14 0,14.8954305 0,16 C0,17.1122704 0.896453677,18 2.00228533,18 L14,18 L14,30.9977147 C14,32.1002151 14.8954305,33 16,33 C17.1122704,33 18,32.1035463 18,30.9977147 L18,18 L30.9977147,18 C32.1002151,18 33,17.1045695 33,16 C33,14.8877296 32.1035463,14 30.9977147,14 L18,14 L18,2.00228533 C18,0.899784928 17.1045695,0 16,0 C14.8877296,0 14,0.896453677 14,2.00228533 L14,14 L14,14 Z" id="+"></path>
                </g>
            </g>
        </g>
    </g>
</svg>