<?xml version="1.0" encoding="UTF-8"?>
<svg width="33px" height="35px" viewBox="0 0 33 35" version="1.1" xmlns="http://www.w3.org/2000/svg" xmlns:xlink="http://www.w3.org/1999/xlink">
    <!-- Generator: Sketch 53.2 (72643) - https://sketchapp.com -->
    <title>Icon / Scan</title>
    <desc>Created with Sketch.</desc>
    <g id="Page-1" stroke="none" stroke-width="1" fill="none" fill-rule="evenodd">
        <g id="WeChat-Main-Screen-Drop-Down" transform="translate(-394.000000, -349.000000)" fill="#FFFFFF">
            <g id="+-Drop-Down" transform="translate(352.000000, 134.000000)">
                <g id="Icon-/-Scan" transform="translate(42.000000, 215.000000)">
                    <path d="M32.4375,23.1008 C33.1245,26.8298 33.5785,35.1668 26.4685,34.9858 C23.4345,34.9098 16.3435,36.0798 15.8315,27.1788 C12.3315,27.1788 10.0625,26.9338 7.6455,26.9338 C5.2295,26.9338 4.7675,23.0178 7.6455,23.0178 C10.5245,23.0178 25.0615,23.1358 25.9375,23.0178 C26.4155,22.9528 26.5935,22.6458 26.8755,21.8508 C27.2135,20.8928 26.9085,19.2448 26.8755,16.7998 C26.8335,13.7648 32.1095,14.0588 32.1935,17.2258 C32.2165,18.1008 32.4375,23.1008 32.4375,23.1008 M0.3617,12.0473 C-0.3253,8.3183 -0.7793,-0.0187 6.3307,0.1623 C9.3647,0.2383 16.4557,-0.9317 16.9677,7.9693 C20.4677,7.9693 22.7367,8.2143 25.1537,8.2143 C27.5697,8.2143 28.0317,12.1303 25.1537,12.1303 C22.2747,12.1303 7.7377,12.0123 6.8617,12.1303 C6.3837,12.1953 6.2057,12.5023 5.9237,13.2973 C5.5857,14.2553 5.8907,15.9033 5.9237,18.3483 C5.9657,21.3833 0.6897,21.0893 0.6057,17.9223 C0.5827,17.0473 0.3617,12.0473 0.3617,12.0473"></path>
                </g>
            </g>
        </g>
    </g>
</svg>