<?xml version="1.0" encoding="UTF-8"?>
<svg width="55px" height="44px" viewBox="0 0 55 44" version="1.1" xmlns="http://www.w3.org/2000/svg" xmlns:xlink="http://www.w3.org/1999/xlink">
    <!-- Generator: Sketch 53.2 (72643) - https://sketchapp.com -->
    <title>Icon / TabBar-Contacts-Outline</title>
    <desc>Created with Sketch.</desc>
    <g id="Page-1" stroke="none" stroke-width="1" fill="none" fill-rule="evenodd">
        <g id="WeChat-Main-Screen-Drop-Down" transform="translate(-212.000000, -1054.000000)">
            <g id="TabBar-WeChat-Active" transform="translate(0.000000, 1037.000000)">
                <g id="通讯录-+-TabBar-Contacts-Outline" transform="translate(210.000000, 17.000000)">
                    <g id="Icon-/-TabBar-Contacts-Outline" transform="translate(2.000000, 0.000000)">
                        <path d="M28.8500804,23.4784596 C28.9097485,23.4408631 29.0578395,23.2988388 29.3094195,23.0098708 C29.3407161,22.9739231 29.6878901,22.5691448 29.8055441,22.4355318 C30.028834,22.181954 30.2320667,21.9645032 30.4469077,21.7539486 C30.6199689,21.5843401 30.7955835,21.4244752 30.9771299,21.2726926 C33.4960049,18.5348422 34.6759092,15.5945903 34.5004389,12.1925993 C34.6812953,6.08999435 29.8908097,1 24,1 C18.1091486,1 13.3186655,6.08999172 13.4986207,12.2747266 C13.324047,15.5950753 14.5039565,18.5348518 17.0228721,21.2726956 C17.2044152,21.42448 17.3800268,21.5843469 17.5530862,21.7539582 C17.7679045,21.9644964 17.9711178,22.18193 18.1943891,22.4354887 C18.3120345,22.569093 18.6591898,22.9738513 18.6904823,23.0097945 C18.9420847,23.2987905 19.0901904,23.4408342 19.1499048,23.4784556 L19.8888891,23.6502135 L19.8888889,24.4444447 C19.8888889,24.5702076 19.8942598,24.6807533 19.9072213,24.8591533 C19.9480992,25.4217923 19.9480992,25.5982454 19.8506751,25.9404683 L19.8088237,26.0874801 L19.724967,26.215277 C18.0528988,28.7634966 15.4325338,30.6820284 11.0997629,32.9834305 C10.7658368,33.1607992 7.18194764,35.0063524 6.25056337,35.5244454 C3.62534134,36.9847548 2.29830519,38.1265507 1.99549672,39.2503954 C1.99319622,39.3121578 1.99183982,39.3490275 1.98735801,39.4708518 C1.96189891,40.1899542 1.96203558,40.7601049 2.00366657,41.3249927 C2.07829394,42.3376059 2.28341182,42.9051268 2.36547288,42.993487 C5.72290721,42.8412469 42.2770464,42.8412469 45.6345194,42.9934865 C45.7165595,42.9051236 45.9216721,42.3375997 45.9963024,41.3249896 C46.0379321,40.7601434 46.0380769,40.1900786 46.0126349,39.4709278 C46.0081546,39.3490539 46.0067988,39.3121735 46.0044993,39.2503838 C45.7016679,38.1265085 44.374716,36.9847106 41.7497113,35.5244328 C40.8182435,35.0062616 37.2339639,33.1604285 36.8996434,32.9828396 C32.5676815,30.6817295 29.9474509,28.7632895 28.2751061,26.2153884 L28.1111101,25.9655324 L28.1111111,25.6666634 C28.111112,25.1112672 28.111112,25.1112672 28.1111111,24.4444468 L28.1111093,23.6502255 L28.8500804,23.4784596 Z" id="person" stroke="#7A7E83" stroke-width="2"></path>
                        <rect id="Rectangle-166" fill="#7A7E83" x="40" y="13" width="15" height="3"></rect>
                        <rect id="Rectangle-166-Copy" fill="#7A7E83" x="43" y="21" width="12" height="3"></rect>
                        <rect id="Rectangle-166-Copy-2" fill="#7A7E83" x="46" y="29" width="9" height="3"></rect>
                    </g>
                </g>
            </g>
        </g>
    </g>
</svg>